<svg xmlns="http://www.w3.org/2000/svg" width="54" height="50" viewBox="0 0 54 50">
  <defs>
    <linearGradient id="a" x1="43.114%" x2="96.791%" y1="55.385%" y2="41.874%">
      <stop stop-color="#F7003C" offset="0%"/>
      <stop stop-color="#F70040" offset="53%"/>
      <stop stop-color="#F8004D" offset="62%"/>
      <stop stop-color="#F90061" offset="70%"/>
      <stop stop-color="#FA007E" offset="79%"/>
      <stop stop-color="#FC00A4" offset="87%"/>
      <stop stop-color="#FE00D1" offset="96%"/>
      <stop stop-color="#FF00E8" offset="100%"/>
    </linearGradient>
  </defs>
  <g fill="none" fill-rule="evenodd">
    <path fill="url(#a)" fill-rule="nonzero" d="M26.9333388,0 L26.2795939,0.0176724138 L25.4887179,0.0823275862 L24.7383775,0.192672414 L23.8586681,0.380603448 L22.9371294,0.653448276 L22.0660445,0.984482759 L21.2549007,1.36637931 L20.5438023,1.7625 L19.9400801,2.14698276 L19.4083734,2.53146552 L18.9111651,2.925 L18.5536753,3.23836207 L18.2755319,3.49698276 L18.1030399,3.66206897 L17.9542655,3.81034483 L2.90821584,19.1594828 L2.68095757,19.4159483 L2.46016776,19.6797414 L2.24800255,19.95 L2.04489317,20.2267241 L1.85127085,20.5107759 L1.65247377,20.8228448 L1.47610065,21.1185345 L1.30964583,21.4202586 L1.15354053,21.7258621 L1.00605984,22.0366379 L0.868928665,22.3525862 L0.743871934,22.6724138 L0.627008575,22.9961207 L0.520494739,23.3237069 L0.425192885,23.6534483 L0.338946864,23.987069 L0.263912825,24.3232759 L0.200522,24.662069 L0.147049466,25.0021552 L0.103926456,25.3448276 L0.0707217375,25.7215517 L0.0495914622,26.0663793 L0.0401043999,26.4112069 L0.0401043999,26.7560345 L0.052610073,27.1008621 L0.0754652686,27.4456897 L0.109963677,27.7883621 L0.153086688,28.1310345 L0.216046283,28.5064655 L0.28202449,28.8426724 L0.358783449,29.1775862 L0.44502947,29.5099138 L0.560599138,29.8706897 L0.668406665,30.1943966 L0.788288635,30.5172414 L0.93318195,30.8689655 L1.07031312,31.1784483 L1.23547426,31.5185345 L1.41055368,31.8521552 L1.59598262,32.1784483 L1.79003617,32.4918103 L1.98926448,32.7935345 L2.21911013,33.1172414 L2.50458446,33.487931 L2.81162029,33.8521552 L3.31314091,34.3887931 L3.88322711,34.9206897 L4.26400329,35.2366379 L4.58138865,35.4788793 L4.89316802,35.7021552 L5.19201048,35.9 L5.5016337,36.0913793 L5.82290013,36.275431 L6.15063501,36.4478448 L6.45508346,36.5974138 L6.79661771,36.7508621 L7.11270938,36.8801724 L7.43268212,37.0008621 L7.78930941,37.1228448 L8.11790675,37.2232759 L8.45038517,37.3146552 L8.78415727,37.3948276 L9.12051675,37.4646552 L9.45946362,37.5228448 L9.83506504,37.575 L10.1800491,37.612931 L10.5250332,37.6396552 L10.8700173,37.6547414 L11.2150014,37.6599138 L11.5599855,37.6534483 L11.9049696,37.637069 L12.2477975,37.6090517 L12.5906254,37.5711207 L12.9636395,37.5163793 L13.2991365,37.4568966 L13.6367897,37.387069 L13.9714242,37.3047414 L14.3034714,37.2133621 L14.6320687,37.1107759 L14.9572162,36.9978448 L15.2784827,36.874569 L15.595868,36.7413793 L15.9080786,36.5978448 L16.2164082,36.4456897 L16.5182692,36.2818966 L16.8166805,36.1094828 L17.1086232,35.9280172 L17.3940976,35.7362069 L17.6735347,35.537069 L17.9465033,35.3288793 L18.2319777,35.0952586 L18.4907157,34.8693966 L18.7421229,34.637069 L26.9195394,26.3081897 C26.9278094,26.3005233 26.9405931,26.3005233 26.948863,26.3081897 L35.1254171,34.6387931 L35.3768242,34.8724138 L35.6549677,35.1133621 L35.9214679,35.3288793 L36.1944365,35.537069 L36.4738736,35.7375 L36.7606417,35.9280172 L37.0525844,36.1094828 L37.349702,36.2818966 L37.6515631,36.4443966 L37.9585989,36.5965517 L38.2708095,36.7400862 L38.5881948,36.8732759 L38.9094613,36.9965517 L39.2359025,37.1094828 L39.5636374,37.212069 L39.8961158,37.3034483 L40.2298879,37.3857759 L40.567541,37.4568966 L40.9396926,37.5215517 L41.2812269,37.5711207 L41.6227611,37.6090517 L41.965589,37.637069 L42.3105731,37.6534483 L42.6555572,37.6599138 L43.0005413,37.6547414 L43.3455254,37.6396552 L43.6905095,37.612931 L44.0686983,37.5698276 L44.4089388,37.5215517 L44.7478857,37.462069 L45.0842452,37.3935345 L45.4563968,37.3034483 L45.7862878,37.212069 L46.1140227,37.1116379 L46.474531,36.9857759 L46.7919164,36.8650862 L47.1433689,36.7168103 L47.4478174,36.5771552 L47.7854706,36.4094828 L48.1153616,36.2318966 L48.4340406,36.0465517 L48.7410765,35.8534483 L49.1067596,35.6047414 L49.4470002,35.3547414 L49.8493379,35.0297414 L50.3676764,34.5689655 L50.9136138,34.0086207 L51.2387613,33.6357759 L51.4888747,33.325 L51.7187204,33.0193966 L51.9244171,32.725 L52.1400322,32.3926724 L52.3125242,32.1034483 L52.4940721,31.7797414 L52.6665641,31.449569 L52.8140448,31.1413793 L52.9524697,30.8293103 L53.0921883,30.4801724 L53.2103453,30.1577586 L53.3181528,29.8314655 L53.4160421,29.5017241 L53.5022881,29.1706897 L53.5859467,28.8012931 L53.6519249,28.4625 L53.7079848,28.1224138 L53.7536952,27.7810345 L53.7877624,27.4383621 L53.8106176,27.0935345 L53.8231233,26.7487069 L53.8231233,26.4038793 L53.8127738,26.0590517 L53.7899186,25.6823276 L53.7593012,25.3375 L53.7161782,24.9961207 L53.6639994,24.6560345 L53.6006085,24.3172414 L53.5255745,23.9810345 L53.4393285,23.6474138 L53.3427329,23.3163793 L53.2375128,22.9887931 L53.1206494,22.6650862 L52.9938678,22.3452586 L52.8567366,22.0293103 L52.7105496,21.7185345 L52.5531506,21.412931 L52.3866958,21.1112069 L52.1973858,20.7926724 L52.0119568,20.5021552 L51.8179033,20.2189655 L51.6147939,19.9422414 L51.4026287,19.6706897 L51.1831326,19.4068966 L50.9545806,19.150431 L50.7174041,18.9017241 L35.7666563,3.6637931 L35.5243049,3.43275862 L35.2017448,3.14094828 L34.8136377,2.81594828 L34.3824076,2.47974138 L33.8946864,2.13189655 L33.3125257,1.7625 L32.6842235,1.40862069 L31.8795481,1.02284483 L31.0377869,0.692672414 L30.1429844,0.417672414 L29.2093713,0.206896552 L28.3589855,0.0810344828 L27.5745779,0.0176724138 L26.9333388,0 Z"/>
    <polygon fill="#231F20" fill-rule="nonzero" points="7.009 49.843 4.241 45.522 4.241 49.843 3.055 49.843 3.055 43.752 4.533 43.752 7.068 47.781 7.068 43.752 8.255 43.752 8.255 49.843"/>
    <path fill="#231F20" fill-rule="nonzero" d="M12.5013608 43.6232759C14.1598718 43.6232759 15.6381286 44.8344828 15.6381286 46.8021552 15.6381286 48.7612069 14.1598718 49.9719828 12.5013608 49.9719828 10.8506119 49.9719828 9.37278636 48.7607759 9.37278636 46.8021552 9.37278636 44.8344828 10.8506119 43.6232759 12.5013608 43.6232759zM12.5013608 48.8211207C13.4470484 48.8211207 14.409554 48.1685345 14.409554 46.7931034 14.409554 45.4176724 13.4470484 44.7672414 12.5013608 44.7672414 11.564729 44.7672414 10.6013609 45.4198276 10.6013609 46.7931034 10.6013609 48.1663793 11.564729 48.8211207 12.5013608 48.8211207L12.5013608 48.8211207zM16.7563082 49.8431034L16.7563082 43.7521552 18.939195 43.7521552C20.6753275 43.7521552 21.9478875 44.8775862 21.9478875 46.8021552 21.9478875 48.7267241 20.6667029 49.8431034 18.9292768 49.8431034L16.7563082 49.8431034zM18.8878787 48.7439655C19.8853139 48.7439655 20.7188817 48.125 20.7188817 46.8043103 20.7188817 45.4836207 19.8935073 44.8538793 18.896072 44.8538793L17.942191 44.8538793 17.942191 48.7461207 18.8878787 48.7439655z"/>
    <polygon fill="#231F20" fill-rule="nonzero" points="23.066 49.843 23.066 43.752 26.882 43.752 26.882 44.871 24.251 44.871 24.251 46.262 26.632 46.262 26.632 47.319 24.251 47.319 24.251 48.728 26.882 48.728 26.882 49.845"/>
    <path fill="#231F20" fill-rule="nonzero" d="M30.9808645 47.549569L30.9808645 49.8431034 29.7945505 49.8431034 29.7945505 43.7521552 32.0718767 43.7521552C33.2758712 43.7521552 34.0745093 44.5508621 34.0745093 45.6508621 34.0745093 46.7586207 33.2754399 47.5474138 32.0718767 47.5474138L30.9808645 47.549569zM31.9261209 46.5267241C32.5190623 46.5267241 32.8800019 46.1818966 32.8800019 45.6594828 32.8800019 45.1176724 32.5190623 44.7827586 31.9261209 44.7827586L30.9890579 44.7827586 30.9890579 46.5267241 31.9261209 46.5267241zM37.8568286 43.6232759C39.5157708 43.6232759 40.9940276 44.8344828 40.9940276 46.8021552 40.9940276 48.7612069 39.5157708 49.9719828 37.8568286 49.9719828 36.2069422 49.9719828 34.7282542 48.7607759 34.7282542 46.8021552 34.7278229 44.8344828 36.206511 43.6232759 37.8568286 43.6232759zM37.8568286 48.8211207C38.8029474 48.8211207 39.7650218 48.1685345 39.7650218 46.7931034 39.7650218 45.4176724 38.8025162 44.7672414 37.8568286 44.7672414 36.9201968 44.7672414 35.9594161 45.4198276 35.9594161 46.7931034 35.9594161 48.1663793 36.9197656 48.8211207 37.8568286 48.8211207L37.8568286 48.8211207z"/>
    <polygon fill="#231F20" fill-rule="nonzero" points="42.069 49.843 42.069 43.752 43.255 43.752 43.255 48.709 45.971 48.709 45.971 49.843"/>
    <polygon fill="#231F20" fill-rule="nonzero" points="46.968 49.843 46.968 43.752 50.785 43.752 50.785 44.871 48.154 44.871 48.154 46.262 50.535 46.262 50.535 47.319 48.154 47.319 48.154 48.728 50.785 48.728 50.785 49.845"/>
  </g>
</svg>
